<?xml version="1.0" encoding="UTF-8"?>
<svg width="110px" height="80px" viewBox="0 0 110 80" version="1.1" xmlns="http://www.w3.org/2000/svg" xmlns:xlink="http://www.w3.org/1999/xlink">
    <g id="Page-1" stroke="none" stroke-width="1" fill="none" fill-rule="evenodd">
        <g id="logo-whiteorange" fill-rule="nonzero">
            <path d="M105.221,9.657 L105.162,9.565 C103.32,6.688 100.715,4.362 97.409,2.647 C94.18,0.979 90.346,0.133 86.021,0.133 L33.246,0.133 C27.231,0.133 22.091,1.215 17.933,3.362 C9.519,7.786 4.209,17.92 1.699,34.364 C1.024,38.909 0.682,42.994 0.682,46.502 C0.682,54.161 2.15,60.441 5.044,65.174 L5.102,65.264 C6.944,68.141 9.549,70.467 12.855,72.184 C16.085,73.852 19.918,74.698 24.243,74.698 L50.895,74.698 L77.018,74.697 C83.032,74.697 88.172,73.617 92.331,71.468 C100.745,67.044 106.055,56.91 108.565,40.466 C109.24,35.92 109.583,31.835 109.583,28.327 C109.583,20.668 108.115,14.387 105.221,9.657 Z" id="Shape" fill="#FFFFFF"></path>
            <path d="M100.699,11.717 C99.359,9.622 97.453,7.934 94.978,6.651 C92.499,5.371 89.517,4.727 86.022,4.727 L59.37,4.727 C59.37,4.727 59.333,4.727 59.277,4.729 L59.277,4.727 L32.625,4.727 C29.13,4.727 25.938,5.372 23.044,6.651 C20.152,7.934 17.715,9.339 15.694,11.432 C14.911,12.266 14.371,13.061 13.656,14.024 L13.322,14.559 C11.982,17.094 10.862,19.846 9.959,22.817 C9.057,25.787 8.167,29.588 7.292,34.219 C6.42,38.848 5.983,43.322 5.983,47.631 C5.983,54.738 7.469,60.274 10.438,64.235 C11.778,65.924 13.453,67.174 15.461,67.99 C17.474,68.807 19.713,69.214 22.191,69.214 C24.666,69.214 27.214,68.864 29.835,68.168 C31.99,67.642 34.087,66.33 36.128,64.235 L39.359,68.69 L49.231,68.69 L49.581,68.69 L77.018,68.69 C82.202,68.69 86.486,67.815 89.864,66.07 C96.619,62.518 101.106,53.487 103.321,38.981 C103.961,34.672 104.281,30.885 104.281,27.622 C104.282,20.922 103.087,15.621 100.699,11.717 Z M89.08,36.883 C88.031,43.406 86.545,48.274 84.622,51.477 C82.702,54.682 80.049,56.281 76.672,56.281 L65.487,56.281 L68.746,35.594 L37.542,35.594 C37.493,35.604 37.443,35.615 37.395,35.623 C37.095,35.684 36.801,35.747 36.517,35.814 C36.393,35.843 36.272,35.874 36.151,35.904 C35.9,35.967 35.653,36.03 35.416,36.097 C35.241,36.146 35.073,36.201 34.905,36.252 C34.73,36.308 34.551,36.36 34.384,36.418 C34.047,36.535 33.723,36.655 33.417,36.784 L32.021,45.786 L38.921,45.786 L37.88,51.649 C37.646,51.998 37.385,52.29 37.095,52.52 C36.792,52.777 36.489,53.014 36.181,53.241 C36.069,53.324 35.955,53.399 35.843,53.479 C35.652,53.613 35.458,53.743 35.265,53.866 C35.12,53.958 34.977,54.046 34.831,54.132 C34.675,54.224 34.518,54.31 34.361,54.394 C34.19,54.487 34.019,54.581 33.846,54.665 C33.787,54.693 33.73,54.717 33.671,54.743 C33.184,54.972 32.691,55.166 32.192,55.328 C32.165,55.336 32.139,55.348 32.112,55.355 C31.852,55.437 31.59,55.507 31.326,55.573 C31.284,55.583 31.24,55.594 31.197,55.603 C30.925,55.667 30.651,55.722 30.376,55.767 L28.18,56.28 L26.963,56.28 C23.585,56.28 21.453,54.679 20.573,51.476 C19.691,48.273 19.786,43.406 20.857,36.882 C21.769,32.107 22.598,28.569 23.347,26.265 C24.094,23.964 25.024,22.13 26.141,20.761 C26.862,19.875 27.611,19.169 28.389,18.636 L28.39,18.636 C28.58,18.505 28.774,18.386 28.969,18.277 C29.006,18.256 29.043,18.235 29.08,18.214 C29.28,18.107 29.479,18.005 29.683,17.921 C30.93,17.398 32.398,17.136 34.086,17.136 L39.033,17.136 L44.66,17.136 L71.69,17.136 L77.763,17.136 L82.264,17.136 C83.952,17.136 85.335,17.398 86.412,17.921 C87.49,18.447 88.364,19.394 89.032,20.761 C89.704,22.13 90.039,23.966 90.039,26.265 C90.04,28.57 89.718,32.108 89.08,36.883 Z" id="Shape" fill="#512E83"></path>
            <path d="M86.022,4.727 C89.517,4.727 92.5,5.371 94.978,6.649 C97.453,7.934 99.358,9.623 100.699,11.715 C103.088,15.619 104.282,20.92 104.282,27.619 C104.282,30.883 103.962,34.67 103.322,38.978 C101.107,53.484 96.62,62.515 89.865,66.066 C86.487,67.812 82.203,68.687 77.019,68.687 L49.233,68.687 L59.369,4.724 L86.022,4.724 L86.022,4.727 Z M76.67,56.281 C80.047,56.281 82.7,54.68 84.62,51.477 C86.543,48.274 88.03,43.407 89.078,36.883 C89.719,32.108 90.038,28.57 90.038,26.266 C90.038,23.965 89.704,22.131 89.031,20.762 C88.363,19.393 87.489,18.449 86.411,17.922 C85.334,17.399 83.951,17.137 82.263,17.137 L71.689,17.137 L65.485,56.282 L76.67,56.281 Z" id="Shape" fill="#40A5B0"></path>
            <path d="M89.033,20.762 C88.365,19.393 87.491,18.449 86.413,17.922 C85.336,17.399 83.953,17.137 82.265,17.137 L77.764,17.137 L71.691,17.137 L44.661,17.137 L39.034,17.137 L34.087,17.137 C32.399,17.137 30.931,17.399 29.684,17.922 C29.481,18.006 29.282,18.108 29.081,18.215 C29.043,18.236 29.006,18.256 28.969,18.278 C28.776,18.387 28.582,18.507 28.391,18.637 L28.39,18.637 C27.612,19.17 26.863,19.876 26.142,20.762 C25.025,22.131 24.094,23.967 23.348,26.266 C22.599,28.57 21.77,32.108 20.858,36.883 C19.787,43.406 19.692,48.274 20.574,51.477 C21.453,54.682 23.586,56.281 26.964,56.281 L28.18,56.281 L30.377,55.768 C32.742,55.387 34.982,54.313 37.095,52.522 C37.387,52.292 37.647,52 37.881,51.652 L38.922,45.788 L32.022,45.788 L33.418,36.786 C34.562,36.306 35.938,35.911 37.53,35.597 L68.749,35.597 L65.49,56.283 L76.675,56.283 C80.052,56.283 82.705,54.683 84.625,51.48 C86.548,48.275 88.035,43.409 89.083,36.884 C89.724,32.11 90.043,28.571 90.043,26.267 C90.04,23.965 89.705,22.131 89.033,20.762 Z" id="Shape" fill="#FFFFFF"></path>
            <path d="M83.822,25.076 C83.579,26.805 81.98,28.205 80.252,28.205 C78.524,28.205 77.319,26.804 77.564,25.076 C77.807,23.347 79.405,21.946 81.132,21.946 C82.861,21.946 84.065,23.346 83.822,25.076 Z" id="Shape" fill="#512E83"></path>
            <polygon id="Shape" fill="#512E83" points="54.479 35.596 49.234 58.926 53.488 58.926 56.005 35.596"></polygon>
            <polygon id="Shape" fill="#FFFFFF" points="56.419 32.735 56.005 35.596 53.012 56.281 67.104 56.281 70.777 32.823"></polygon>
            <polygon id="Shape" fill="#40A5B0" points="70.065 79.1 60.212 62.356 70.065 45.613 54.464 45.874 42.527 62.354 54.245 79.051"></polygon>
            <polygon id="Shape" fill="#512E83" points="72.989 34.379 67.842 34.379 68.566 29.233 73.71 29.233"></polygon>
            <polygon id="Shape" fill="#FFFFFF" points="54.507 10.869 50.026 17.135 61.921 17.135 66.244 11.301 62.112 4.539 50.984 4.539"></polygon>
        </g>
    </g>
</svg>